{"title":"Barcelona vs Chelsea 2-2 2nd half. 24-4-2012","uid":7213311,"size":2284883968,"categoryP":"video","categoryS":"other","magnet":"?xt=urn:btih:6581bad46820486d6ecad180da67c97f5bf5f4bd&amp;dn=Barcelona+vs+Chelsea+2-2+2nd+half.+24-4-2012+&amp;tr=udp%3A%2F%2Ftracker.openbittorrent.com%3A80&amp;tr=udp%3A%2F%2Fopen.demonii.com%3A1337&amp;tr=udp%3A%2F%2Ftracker.coppersurfer.tk%3A6969&amp;tr=udp%3A%2F%2Fexodus.desync.com%3A6969","seeders":0,"leechers":1,"uploader":"Mountain-Diouf","files":1,"time":1335309022,"description":"Barcelona vs Chelsea 2-2 2nd half. 24-4-2012\n\n\nScreeens &gt;&gt; http://bayimg.com/pAoKEAaDDpAoKEAaDD\n\n\nAudio: MPEG Audio 44100Hz stereo 112kbps [Audio]\nVideo: MPEG2 Video 720x576 (16:9) 25.00fps 10000kbps [Video]\n\n\n\n\nGeneral\nComplete name                    : C:JSC sports +8 Barcelona vs Chelsea (L) 2nd half.mpg\nFormat                           : MPEG-PS\nFile size                        : 2.13 GiB\nDuration                         : 50mn 22s\nOverall bit rate                 : 6 048 Kbps\n\nVideo\nID                               : 224 (0xE0)\nFormat                           : MPEG Video\nFormat version                   : Version 2\nFormat profile                   : Main@Main\nFormat settings, BVOP            : Yes\nFormat settings, Matrix          : Default\nDuration                         : 50mn 22s\nBit rate mode                    : Variable\nBit rate                         : 5 552 Kbps\nNominal bit rate                 : 10 000 Kbps\nWidth                            : 720 pixels\nHeight                           : 576 pixels\nDisplay aspect ratio             : 16:9\nFrame rate                       : 25.000 fps\nStandard                         : PAL\nResolution                       : 8 bits\nColorimetry                      : 4:2:0\nScan type                        : Interlaced\nScan order                       : Top Field First\nBits/(Pixel*Frame)               : 0.535\nStream size                      : 1.95 GiB (92%)\n\nAudio\nID                               : 192 (0xC0)\nFormat                           : MPEG Audio\nFormat version                   : Version 1\nFormat profile                   : Layer 2\nDuration                         : 50mn 22s\nBit rate mode                    : Constant\nBit rate                         : 256 Kbps\nChannel(s)                       : 2 channels\nSampling rate                    : 48.0 KHz\nVideo delay                      : -394ms\nStream size                      : 92.2 MiB (4%)\n\n","torrent":{"xt":"urn:btih:6581bad46820486d6ecad180da67c97f5bf5f4bd","amp;dn":"Barcelona+vs+Chelsea+2-2+2nd+half.+24-4-2012+","amp;tr":["udp%3A%2F%2Ftracker.openbittorrent.com%3A80","udp%3A%2F%2Fopen.demonii.com%3A1337","udp%3A%2F%2Ftracker.coppersurfer.tk%3A6969","udp%3A%2F%2Fexodus.desync.com%3A6969"],"infoHash":"6581bad46820486d6ecad180da67c97f5bf5f4bd","infoHashBuffer":{"type":"Buffer","data":[101,129,186,212,104,32,72,109,110,202,209,128,218,103,201,127,91,245,244,189]},"announce":[],"urlList":[]}}